# xmcd
#
# Track frame offsets:
#	150
#	23241
#	42005
#	66159
#	109677
#	128287
#	148821
#	169784
#	209573
#	229166
#	243757
#	270903
#	287389
#	306327
#	320862
#	354677
#
# Disc length: 4737 seconds
#
# Revision: 1
# Processed by: cddbd v1.5.2PL0 Copyright (c) Steve Scherf et al.
# Submitted via: audiograbber 1.83.01
#
DISCID=e7127f10
DTITLE=Various Artist - SC7530s
DYEAR=1900
DGENRE=Karaoke
TTITLE0=Roberta Flack - Killing Me Softly with His Song
TTITLE1=Jeffrey Osborne - On the Wings of Love
TTITLE2=Elton John - Saturday Night's Alright for Fighting
TTITLE3=Lynyrd Skynyrd - Free Bird
TTITLE4=Elton John - Daniel
TTITLE5=Larry Graham - One in a Million
TTITLE6=Celine Dion and Clive Griffin - When I Fall in Love
TTITLE7=Meat Loaf - Paradise by the Dashboard Light
TTITLE8=Dave Loggins - Please Come to Boston
TTITLE9=Bay City Rollers - Saturday Night
TTITLE10=Billy Joel - Piano Man
TTITLE11=Helen Reddy - I am Woman
TTITLE12=Linda Ronstadt and James Ingram - Somewhere Out There
TTITLE13=The Romantics - What I Like About You
TTITLE14=Bill Medley and Jennifer Warnes - (I've Had) The Time of My Life
TTITLE15=Data - Data Track
EXTD=
EXTT0=
EXTT1=
EXTT2=
EXTT3=
EXTT4=
EXTT5=
EXTT6=
EXTT7=
EXTT8=
EXTT9=
EXTT10=
EXTT11=
EXTT12=
EXTT13=
EXTT14=
EXTT15=
PLAYORDER=
